<svg width="14" height="12" viewBox="0 0 14 12" fill="none" xmlns="http://www.w3.org/2000/svg">
<path d="M6.8175 10.1689L6.75 10.2343L6.67575 10.1689C3.4695 7.35041 1.35 5.48665 1.35 3.59673C1.35 2.28883 2.3625 1.3079 3.7125 1.3079C4.752 1.3079 5.7645 1.96185 6.12225 2.85123H7.37775C7.7355 1.96185 8.748 1.3079 9.7875 1.3079C11.1375 1.3079 12.15 2.28883 12.15 3.59673C12.15 5.48665 10.0305 7.35041 6.8175 10.1689ZM9.7875 0C8.613 0 7.48575 0.5297 6.75 1.36022C6.01425 0.5297 4.887 0 3.7125 0C1.6335 0 0 1.57602 0 3.59673C0 6.06213 2.295 8.08283 5.77125 11.1368L6.75 12L7.72875 11.1368C11.205 8.08283 13.5 6.06213 13.5 3.59673C13.5 1.57602 11.8665 0 9.7875 0Z" fill="#EDEDED"/>
</svg>
