<svg width="30" height="30" viewBox="0 0 30 30" fill="none" xmlns="http://www.w3.org/2000/svg">
<rect x="0.5" y="0.5" width="29" height="29" rx="6.5" fill="white" stroke="#F8F8F8"/>
<path d="M17.7634 9C16.5189 9 15.4292 9.55513 14.75 10.4935C14.0708 9.55513 12.9811 9 11.7366 9C10.7459 9.00116 9.79617 9.40988 9.09566 10.1365C8.39515 10.8631 8.00112 11.8483 8 12.8759C8 17.2519 14.2552 20.794 14.5216 20.9403C14.5918 20.9795 14.6703 21 14.75 21C14.8297 21 14.9082 20.9795 14.9784 20.9403C15.2448 20.794 21.5 17.2519 21.5 12.8759C21.4989 11.8483 21.1048 10.8631 20.4043 10.1365C19.7038 9.40988 18.7541 9.00116 17.7634 9ZM14.75 19.9276C13.6495 19.2624 8.96429 16.2323 8.96429 12.8759C8.96524 12.1135 9.25763 11.3827 9.77734 10.8436C10.297 10.3045 11.0016 10.0012 11.7366 10.0002C12.9088 10.0002 13.893 10.6479 14.304 11.6881C14.3403 11.7799 14.4021 11.8583 14.4815 11.9135C14.561 11.9687 14.6544 11.9982 14.75 11.9982C14.8456 11.9982 14.939 11.9687 15.0185 11.9135C15.0979 11.8583 15.1597 11.7799 15.196 11.6881C15.607 10.646 16.5912 10.0002 17.7634 10.0002C18.4984 10.0012 19.203 10.3045 19.7227 10.8436C20.2424 11.3827 20.5348 12.1135 20.5357 12.8759C20.5357 16.2273 15.8493 19.2618 14.75 19.9276Z" fill="#ECECEC"/>
</svg>
